<svg xmlns="http://www.w3.org/2000/svg" xmlns:xlink="http://www.w3.org/1999/xlink" width="500" zoomAndPan="magnify" viewBox="0 0 375 374.999991" height="500" preserveAspectRatio="xMidYMid meet" version="1.0"><defs><g/><clipPath id="d4559251cf"><path d="M 180 172 L 207 172 L 207 197.648438 L 180 197.648438 Z M 180 172 " clip-rule="nonzero"/></clipPath><clipPath id="209857891e"><path d="M 120.363281 47.648438 L 228 47.648438 L 228 97 L 120.363281 97 Z M 120.363281 47.648438 " clip-rule="nonzero"/></clipPath><clipPath id="d01126b593"><path d="M 222 58 L 254.613281 58 L 254.613281 84 L 222 84 Z M 222 58 " clip-rule="nonzero"/></clipPath></defs><path fill="#ffffff" d="M 125.019531 79.742188 L 156.839844 68.910156 L 155.742188 63.164062 L 161.703125 56.753906 L 183.238281 56.753906 L 190.15625 51.671875 L 201.503906 50.066406 L 208.261719 52.480469 L 215.265625 51.453125 L 222.964844 57.199219 L 226.007812 63.164062 L 250.753906 60.472656 L 237.5 79.742188 L 237.714844 166.683594 L 195.070312 174.554688 L 150.296875 166.683594 L 150.296875 94.410156 Z M 125.019531 79.742188 " fill-opacity="1" fill-rule="nonzero"/><path fill="#54596e" d="M 150.296875 170.304688 C 149.976562 170.304688 149.667969 170.242188 149.371094 170.121094 C 149.078125 169.996094 148.816406 169.824219 148.589844 169.597656 C 148.363281 169.371094 148.1875 169.109375 148.066406 168.8125 C 147.941406 168.519531 147.882812 168.210938 147.882812 167.890625 L 147.882812 85.441406 C 147.882812 85.121094 147.941406 84.8125 148.066406 84.515625 C 148.1875 84.21875 148.363281 83.960938 148.589844 83.734375 C 148.816406 83.507812 149.078125 83.332031 149.371094 83.210938 C 149.667969 83.085938 149.976562 83.027344 150.296875 83.027344 C 150.617188 83.027344 150.925781 83.085938 151.21875 83.210938 C 151.515625 83.332031 151.777344 83.507812 152.003906 83.734375 C 152.230469 83.960938 152.402344 84.21875 152.527344 84.515625 C 152.648438 84.8125 152.710938 85.121094 152.710938 85.441406 L 152.710938 167.890625 C 152.710938 168.210938 152.648438 168.519531 152.527344 168.8125 C 152.402344 169.109375 152.230469 169.371094 152.003906 169.597656 C 151.777344 169.824219 151.515625 169.996094 151.21875 170.121094 C 150.925781 170.242188 150.617188 170.304688 150.296875 170.304688 Z M 150.296875 170.304688 " fill-opacity="1" fill-rule="nonzero"/><path fill="#55a6ff" d="M 242.414062 183.113281 L 193.570312 193.882812 L 144.742188 183.113281 L 144.742188 166.683594 L 193.570312 174.902344 L 242.414062 166.683594 Z M 242.414062 183.113281 " fill-opacity="1" fill-rule="nonzero"/><path fill="#54596e" d="M 193.570312 196.296875 C 193.398438 196.296875 193.222656 196.277344 193.054688 196.238281 L 144.222656 185.480469 C 143.949219 185.421875 143.695312 185.316406 143.457031 185.167969 C 143.222656 185.019531 143.015625 184.832031 142.84375 184.613281 C 142.671875 184.394531 142.539062 184.148438 142.453125 183.882812 C 142.363281 183.617188 142.324219 183.34375 142.328125 183.066406 L 142.328125 166.683594 C 142.328125 165.933594 142.613281 165.316406 143.1875 164.835938 C 143.757812 164.355469 144.40625 164.179688 145.140625 164.304688 L 193.570312 172.453125 L 242 164.304688 C 242.175781 164.273438 242.351562 164.261719 242.53125 164.269531 C 242.707031 164.28125 242.882812 164.308594 243.050781 164.355469 C 243.222656 164.402344 243.386719 164.46875 243.542969 164.550781 C 243.699219 164.632812 243.847656 164.730469 243.980469 164.847656 C 244.117188 164.960938 244.238281 165.089844 244.34375 165.234375 C 244.449219 165.375 244.539062 165.527344 244.613281 165.6875 C 244.6875 165.851562 244.738281 166.019531 244.777344 166.191406 C 244.8125 166.367188 244.828125 166.539062 244.828125 166.71875 L 244.828125 183.164062 C 244.832031 183.441406 244.792969 183.714844 244.703125 183.980469 C 244.617188 184.246094 244.484375 184.488281 244.3125 184.710938 C 244.140625 184.929688 243.933594 185.113281 243.695312 185.261719 C 243.460938 185.414062 243.203125 185.515625 242.929688 185.578125 L 194.089844 196.335938 C 193.917969 196.339844 193.742188 196.328125 193.570312 196.296875 Z M 147.109375 181.183594 L 193.523438 191.410156 L 240.058594 181.183594 L 240.058594 169.589844 L 194.03125 177.34375 C 193.765625 177.390625 193.5 177.390625 193.234375 177.34375 L 147.109375 169.589844 Z M 242.472656 183.125 Z M 242.472656 183.125 " fill-opacity="1" fill-rule="nonzero"/><path fill="#fff35f" d="M 203.917969 184.902344 C 203.917969 185.582031 203.851562 186.253906 203.71875 186.917969 C 203.585938 187.585938 203.390625 188.234375 203.128906 188.859375 C 202.871094 189.488281 202.550781 190.085938 202.171875 190.648438 C 201.796875 191.214844 201.367188 191.738281 200.886719 192.21875 C 200.40625 192.699219 199.882812 193.125 199.320312 193.503906 C 198.753906 193.882812 198.160156 194.199219 197.53125 194.460938 C 196.902344 194.71875 196.257812 194.917969 195.589844 195.050781 C 194.921875 195.179688 194.25 195.246094 193.570312 195.246094 C 192.890625 195.246094 192.21875 195.179688 191.554688 195.050781 C 190.886719 194.917969 190.242188 194.71875 189.613281 194.460938 C 188.984375 194.199219 188.390625 193.882812 187.824219 193.503906 C 187.257812 193.125 186.738281 192.699219 186.257812 192.21875 C 185.777344 191.738281 185.347656 191.214844 184.96875 190.648438 C 184.59375 190.085938 184.273438 189.488281 184.015625 188.859375 C 183.753906 188.234375 183.558594 187.585938 183.425781 186.917969 C 183.292969 186.253906 183.226562 185.582031 183.226562 184.902344 C 183.226562 184.222656 183.292969 183.546875 183.425781 182.882812 C 183.558594 182.214844 183.753906 181.570312 184.015625 180.941406 C 184.273438 180.3125 184.59375 179.71875 184.96875 179.152344 C 185.347656 178.585938 185.777344 178.066406 186.257812 177.585938 C 186.738281 177.105469 187.257812 176.675781 187.824219 176.296875 C 188.390625 175.921875 188.984375 175.601562 189.613281 175.339844 C 190.242188 175.082031 190.886719 174.886719 191.554688 174.753906 C 192.21875 174.621094 192.890625 174.554688 193.570312 174.554688 C 194.25 174.554688 194.921875 174.621094 195.589844 174.753906 C 196.257812 174.886719 196.902344 175.082031 197.53125 175.339844 C 198.160156 175.601562 198.753906 175.921875 199.320312 176.296875 C 199.882812 176.675781 200.40625 177.105469 200.886719 177.585938 C 201.367188 178.066406 201.796875 178.585938 202.171875 179.152344 C 202.550781 179.71875 202.871094 180.3125 203.128906 180.941406 C 203.390625 181.570312 203.585938 182.214844 203.71875 182.882812 C 203.851562 183.546875 203.917969 184.222656 203.917969 184.902344 Z M 203.917969 184.902344 " fill-opacity="1" fill-rule="nonzero"/><g clip-path="url(#d4559251cf)"><path fill="#54596e" d="M 193.570312 197.648438 C 192.734375 197.648438 191.902344 197.570312 191.082031 197.40625 C 190.261719 197.242188 189.460938 197 188.6875 196.679688 C 187.914062 196.359375 187.179688 195.964844 186.480469 195.5 C 185.785156 195.03125 185.140625 194.503906 184.546875 193.910156 C 183.957031 193.320312 183.425781 192.671875 182.960938 191.976562 C 182.496094 191.28125 182.101562 190.542969 181.78125 189.769531 C 181.460938 188.996094 181.21875 188.195312 181.058594 187.375 C 180.894531 186.554688 180.8125 185.722656 180.8125 184.882812 C 180.8125 184.046875 180.894531 183.214844 181.058594 182.394531 C 181.222656 181.574219 181.464844 180.773438 181.785156 180 C 182.105469 179.226562 182.5 178.492188 182.964844 177.792969 C 183.433594 177.097656 183.960938 176.453125 184.554688 175.859375 C 185.148438 175.269531 185.792969 174.738281 186.488281 174.273438 C 187.183594 173.808594 187.921875 173.417969 188.695312 173.097656 C 189.46875 172.777344 190.269531 172.535156 191.089844 172.371094 C 191.910156 172.207031 192.742188 172.125 193.578125 172.128906 C 194.417969 172.128906 195.246094 172.210938 196.070312 172.375 C 196.890625 172.539062 197.6875 172.78125 198.464844 173.101562 C 199.238281 173.421875 199.972656 173.816406 200.667969 174.285156 C 201.363281 174.75 202.007812 175.277344 202.601562 175.871094 C 203.191406 176.464844 203.722656 177.109375 204.1875 177.808594 C 204.652344 178.503906 205.042969 179.242188 205.363281 180.015625 C 205.683594 180.789062 205.925781 181.589844 206.089844 182.410156 C 206.25 183.234375 206.332031 184.0625 206.332031 184.902344 C 206.328125 185.738281 206.246094 186.566406 206.082031 187.386719 C 205.917969 188.207031 205.675781 189.003906 205.351562 189.777344 C 205.03125 190.550781 204.636719 191.285156 204.171875 191.980469 C 203.707031 192.679688 203.179688 193.320312 202.585938 193.914062 C 201.992188 194.503906 201.351562 195.035156 200.652344 195.5 C 199.957031 195.964844 199.222656 196.355469 198.449219 196.675781 C 197.675781 196.996094 196.878906 197.238281 196.058594 197.402344 C 195.238281 197.566406 194.410156 197.648438 193.570312 197.648438 Z M 193.570312 176.96875 C 193.050781 176.96875 192.535156 177.019531 192.023438 177.121094 C 191.515625 177.222656 191.019531 177.375 190.535156 177.574219 C 190.054688 177.773438 189.597656 178.015625 189.164062 178.304688 C 188.734375 178.59375 188.332031 178.921875 187.964844 179.292969 C 187.59375 179.660156 187.265625 180.0625 186.976562 180.492188 C 186.6875 180.925781 186.445312 181.382812 186.246094 181.867188 C 186.046875 182.347656 185.894531 182.84375 185.792969 183.351562 C 185.691406 183.863281 185.640625 184.378906 185.640625 184.902344 C 185.640625 185.421875 185.691406 185.9375 185.792969 186.449219 C 185.894531 186.960938 186.046875 187.457031 186.246094 187.9375 C 186.445312 188.417969 186.6875 188.875 186.976562 189.308594 C 187.265625 189.742188 187.59375 190.140625 187.964844 190.511719 C 188.332031 190.878906 188.734375 191.207031 189.164062 191.496094 C 189.597656 191.785156 190.054688 192.03125 190.535156 192.230469 C 191.019531 192.429688 191.515625 192.578125 192.023438 192.679688 C 192.535156 192.78125 193.050781 192.832031 193.570312 192.832031 C 194.09375 192.832031 194.609375 192.78125 195.117188 192.679688 C 195.628906 192.578125 196.125 192.429688 196.605469 192.230469 C 197.089844 192.03125 197.546875 191.785156 197.976562 191.496094 C 198.410156 191.207031 198.8125 190.878906 199.179688 190.511719 C 199.546875 190.140625 199.875 189.742188 200.167969 189.308594 C 200.457031 188.875 200.699219 188.417969 200.898438 187.9375 C 201.097656 187.457031 201.25 186.960938 201.351562 186.449219 C 201.453125 185.9375 201.503906 185.421875 201.503906 184.902344 C 201.503906 184.378906 201.453125 183.863281 201.351562 183.351562 C 201.25 182.84375 201.097656 182.347656 200.898438 181.867188 C 200.699219 181.382812 200.457031 180.925781 200.167969 180.492188 C 199.875 180.0625 199.546875 179.660156 199.179688 179.292969 C 198.8125 178.921875 198.410156 178.59375 197.976562 178.304688 C 197.546875 178.015625 197.089844 177.773438 196.605469 177.574219 C 196.125 177.375 195.628906 177.222656 195.117188 177.121094 C 194.609375 177.019531 194.09375 176.96875 193.570312 176.96875 Z M 193.570312 176.96875 " fill-opacity="1" fill-rule="nonzero"/></g><g clip-path="url(#209857891e)"><path fill="#54596e" d="M 150.296875 96.824219 C 149.910156 96.824219 149.542969 96.738281 149.199219 96.558594 L 121.855469 82.433594 C 121.421875 82.210938 121.089844 81.882812 120.855469 81.457031 C 120.617188 81.03125 120.519531 80.574219 120.5625 80.085938 C 120.601562 79.601562 120.773438 79.167969 121.078125 78.785156 C 121.382812 78.40625 121.765625 78.140625 122.230469 77.992188 L 153.964844 67.859375 C 153.515625 66.859375 153.265625 65.808594 153.226562 64.710938 C 153.183594 63.609375 153.351562 62.542969 153.722656 61.511719 C 155.160156 57.886719 159.363281 55.558594 166.230469 54.617188 C 171.058594 53.988281 180.714844 53.953125 184.242188 53.964844 C 184.960938 53 185.78125 52.132812 186.703125 51.359375 C 187.621094 50.582031 188.617188 49.921875 189.6875 49.375 C 190.761719 48.828125 191.878906 48.40625 193.046875 48.117188 C 194.214844 47.824219 195.398438 47.671875 196.601562 47.648438 C 202.128906 47.554688 205.050781 48.859375 206.65625 50.066406 L 206.910156 50.066406 C 209.824219 49.234375 212.773438 49.082031 215.757812 49.605469 C 217.382812 49.820312 218.910156 50.320312 220.339844 51.113281 C 221.773438 51.90625 223.011719 52.933594 224.050781 54.195312 C 225.140625 55.339844 225.941406 56.664062 226.453125 58.160156 C 226.964844 59.65625 227.144531 61.191406 226.984375 62.765625 C 226.164062 66.195312 223.617188 68.644531 219.199219 70.25 C 219.222656 71.398438 219.023438 72.507812 218.605469 73.578125 C 218.1875 74.644531 217.578125 75.59375 216.785156 76.421875 C 214.480469 79.042969 208.492188 83.449219 194.273438 83.449219 C 179.171875 83.449219 171.914062 78.617188 168.921875 75.722656 C 168.007812 74.8125 166.929688 74.195312 165.6875 73.863281 L 162.632812 73.078125 L 157.597656 71.796875 L 129.257812 80.828125 L 151.40625 92.320312 C 151.644531 92.449219 151.855469 92.609375 152.039062 92.804688 C 152.226562 93 152.371094 93.222656 152.484375 93.464844 C 152.59375 93.710938 152.660156 93.96875 152.6875 94.238281 C 152.710938 94.503906 152.691406 94.769531 152.628906 95.03125 C 152.5625 95.292969 152.460938 95.539062 152.3125 95.765625 C 152.167969 95.992188 151.992188 96.1875 151.777344 96.355469 C 151.566406 96.519531 151.335938 96.648438 151.082031 96.738281 C 150.828125 96.828125 150.566406 96.871094 150.296875 96.875 Z M 159 67.148438 L 163.828125 68.355469 L 166.882812 69.140625 C 168.949219 69.691406 170.75 70.710938 172.277344 72.207031 C 174.691406 74.621094 180.859375 78.582031 194.261719 78.582031 C 207.03125 78.582031 211.714844 74.816406 213.140625 73.199219 C 213.53125 72.835938 213.828125 72.414062 214.039062 71.925781 C 214.25 71.4375 214.351562 70.929688 214.347656 70.398438 C 214.285156 69.902344 214.304688 69.410156 214.414062 68.921875 C 214.523438 68.433594 214.710938 67.976562 214.976562 67.554688 C 215.242188 67.132812 215.570312 66.765625 215.964844 66.457031 C 216.359375 66.148438 216.792969 65.917969 217.269531 65.761719 C 221.070312 64.554688 221.953125 62.960938 222.265625 61.738281 C 222.191406 60.085938 221.597656 58.648438 220.480469 57.429688 C 219.773438 56.550781 218.929688 55.839844 217.9375 55.300781 C 216.945312 54.761719 215.890625 54.4375 214.769531 54.328125 C 212.484375 53.96875 210.230469 54.113281 208.007812 54.761719 L 207.527344 54.882812 C 206.875 55.019531 206.230469 55.011719 205.582031 54.855469 C 204.9375 54.699219 204.359375 54.410156 203.84375 53.988281 C 203.335938 53.613281 201.527344 52.480469 196.6875 52.480469 C 195.777344 52.496094 194.886719 52.625 194.011719 52.863281 C 193.136719 53.101562 192.304688 53.441406 191.511719 53.886719 C 190.71875 54.328125 189.992188 54.859375 189.332031 55.484375 C 188.671875 56.105469 188.097656 56.796875 187.609375 57.5625 C 187.390625 57.941406 187.089844 58.238281 186.710938 58.453125 C 186.332031 58.671875 185.921875 58.777344 185.484375 58.769531 C 185.351562 58.769531 172.339844 58.648438 166.871094 59.363281 C 160.339844 60.265625 158.648438 62.175781 158.226562 63.226562 C 158.058594 63.902344 158.039062 64.585938 158.175781 65.273438 C 158.3125 65.960938 158.585938 66.585938 159 67.148438 Z M 159 67.148438 " fill-opacity="1" fill-rule="nonzero"/></g><path fill="#54596e" d="M 237.199219 169.964844 C 236.878906 169.964844 236.570312 169.90625 236.273438 169.78125 C 235.976562 169.660156 235.714844 169.484375 235.492188 169.257812 C 235.265625 169.03125 235.089844 168.769531 234.96875 168.476562 C 234.84375 168.179688 234.785156 167.871094 234.785156 167.550781 L 234.785156 81.152344 C 234.359375 79.519531 233.789062 77.9375 233.066406 76.40625 C 232.34375 74.878906 231.484375 73.433594 230.492188 72.066406 C 229.496094 70.699219 228.382812 69.441406 227.148438 68.285156 C 225.914062 67.128906 224.585938 66.097656 223.160156 65.191406 C 222.902344 65.015625 222.6875 64.796875 222.515625 64.535156 C 222.34375 64.273438 222.226562 63.992188 222.164062 63.683594 C 222.101562 63.378906 222.097656 63.070312 222.15625 62.761719 C 222.214844 62.457031 222.324219 62.171875 222.492188 61.90625 C 222.660156 61.644531 222.875 61.421875 223.128906 61.238281 C 223.382812 61.058594 223.660156 60.929688 223.964844 60.855469 C 224.269531 60.785156 224.578125 60.769531 224.886719 60.816406 C 225.195312 60.863281 225.484375 60.964844 225.753906 61.125 C 227.480469 62.207031 229.085938 63.453125 230.566406 64.851562 C 232.050781 66.25 233.382812 67.78125 234.5625 69.445312 C 235.746094 71.109375 236.753906 72.871094 237.589844 74.730469 C 238.425781 76.589844 239.070312 78.515625 239.527344 80.503906 C 239.539062 80.640625 239.539062 80.777344 239.527344 80.914062 L 239.527344 167.550781 C 239.527344 167.871094 239.464844 168.179688 239.34375 168.476562 C 239.222656 168.769531 239.046875 169.03125 238.820312 169.257812 C 238.59375 169.484375 238.332031 169.660156 238.035156 169.78125 C 237.742188 169.90625 237.433594 169.964844 237.113281 169.964844 Z M 237.199219 169.964844 " fill-opacity="1" fill-rule="nonzero"/><g clip-path="url(#d01126b593)"><path fill="#54596e" d="M 237.148438 83.328125 C 236.699219 83.320312 236.28125 83.199219 235.898438 82.957031 C 235.515625 82.71875 235.222656 82.398438 235.019531 81.992188 C 234.816406 81.589844 234.734375 81.160156 234.773438 80.710938 C 234.8125 80.261719 234.964844 79.851562 235.230469 79.488281 L 246.925781 63.417969 L 225.574219 65.566406 C 225.253906 65.597656 224.9375 65.570312 224.628906 65.476562 C 224.324219 65.382812 224.042969 65.234375 223.796875 65.03125 C 223.546875 64.828125 223.34375 64.582031 223.191406 64.300781 C 223.042969 64.015625 222.949219 63.714844 222.917969 63.394531 C 222.886719 63.074219 222.914062 62.757812 223.007812 62.453125 C 223.101562 62.144531 223.25 61.863281 223.453125 61.617188 C 223.65625 61.367188 223.902344 61.167969 224.183594 61.015625 C 224.46875 60.863281 224.769531 60.769531 225.089844 60.738281 L 251.765625 58.070312 C 252.242188 58.019531 252.691406 58.105469 253.117188 58.324219 C 253.539062 58.539062 253.871094 58.855469 254.109375 59.269531 C 254.347656 59.683594 254.453125 60.128906 254.425781 60.605469 C 254.398438 61.082031 254.246094 61.511719 253.964844 61.898438 L 239.105469 82.335938 C 238.875 82.648438 238.589844 82.890625 238.246094 83.066406 C 237.902344 83.242188 237.535156 83.328125 237.148438 83.328125 Z M 237.148438 83.328125 " fill-opacity="1" fill-rule="nonzero"/></g><path fill="#54596e" d="M 201.152344 124.789062 C 201.152344 125.113281 201.105469 125.4375 201.007812 125.753906 C 200.910156 126.074219 200.765625 126.386719 200.574219 126.6875 C 200.386719 126.988281 200.152344 127.273438 199.875 127.542969 C 199.597656 127.816406 199.285156 128.066406 198.933594 128.296875 C 198.582031 128.527344 198.199219 128.730469 197.785156 128.914062 C 197.371094 129.09375 196.933594 129.246094 196.472656 129.371094 C 196.011719 129.496094 195.539062 129.589844 195.050781 129.652344 C 194.5625 129.71875 194.070312 129.75 193.570312 129.75 C 193.074219 129.75 192.582031 129.71875 192.09375 129.652344 C 191.605469 129.589844 191.128906 129.496094 190.671875 129.371094 C 190.210938 129.246094 189.773438 129.09375 189.359375 128.914062 C 188.945312 128.730469 188.5625 128.527344 188.210938 128.296875 C 187.859375 128.066406 187.546875 127.816406 187.269531 127.542969 C 186.992188 127.273438 186.757812 126.988281 186.566406 126.6875 C 186.378906 126.386719 186.234375 126.074219 186.136719 125.753906 C 186.039062 125.4375 185.992188 125.113281 185.992188 124.789062 C 185.992188 124.460938 186.039062 124.140625 186.136719 123.820312 C 186.234375 123.5 186.378906 123.1875 186.566406 122.886719 C 186.757812 122.585938 186.992188 122.300781 187.269531 122.03125 C 187.546875 121.757812 187.859375 121.507812 188.210938 121.277344 C 188.5625 121.046875 188.945312 120.84375 189.359375 120.660156 C 189.773438 120.480469 190.210938 120.328125 190.671875 120.203125 C 191.128906 120.078125 191.605469 119.984375 192.09375 119.921875 C 192.582031 119.855469 193.074219 119.824219 193.570312 119.824219 C 194.070312 119.824219 194.5625 119.855469 195.050781 119.921875 C 195.539062 119.984375 196.011719 120.078125 196.472656 120.203125 C 196.933594 120.328125 197.371094 120.480469 197.785156 120.660156 C 198.199219 120.84375 198.582031 121.046875 198.933594 121.277344 C 199.285156 121.507812 199.597656 121.757812 199.875 122.03125 C 200.152344 122.300781 200.386719 122.585938 200.574219 122.886719 C 200.765625 123.1875 200.910156 123.5 201.007812 123.820312 C 201.105469 124.140625 201.152344 124.460938 201.152344 124.789062 Z M 201.152344 124.789062 " fill-opacity="1" fill-rule="nonzero"/><path fill="#54596e" d="M 184.640625 146.179688 C 183.320312 146.222656 182.046875 146 180.824219 145.507812 C 179.601562 145.015625 178.527344 144.296875 177.601562 143.355469 C 174.257812 139.820312 174.4375 134.433594 174.464844 133.832031 C 174.480469 133.511719 174.554688 133.207031 174.691406 132.914062 C 174.832031 132.625 175.019531 132.375 175.253906 132.160156 C 175.492188 131.941406 175.761719 131.78125 176.066406 131.675781 C 176.367188 131.566406 176.679688 131.519531 176.996094 131.535156 C 177.316406 131.550781 177.621094 131.628906 177.914062 131.765625 C 178.203125 131.902344 178.453125 132.089844 178.667969 132.328125 C 178.886719 132.566406 179.046875 132.835938 179.152344 133.136719 C 179.261719 133.441406 179.308594 133.75 179.292969 134.070312 C 179.292969 135.160156 179.472656 138.320312 181.113281 140.035156 C 181.582031 140.496094 182.121094 140.839844 182.738281 141.070312 C 183.351562 141.296875 183.984375 141.390625 184.640625 141.351562 C 190.589844 141.351562 191.144531 134.109375 191.167969 133.792969 C 191.191406 133.472656 191.273438 133.171875 191.414062 132.882812 C 191.558594 132.59375 191.75 132.34375 191.992188 132.132812 C 192.234375 131.921875 192.507812 131.765625 192.8125 131.664062 C 193.113281 131.5625 193.425781 131.519531 193.746094 131.542969 C 194.066406 131.5625 194.371094 131.644531 194.660156 131.789062 C 194.945312 131.929688 195.195312 132.125 195.40625 132.363281 C 195.617188 132.605469 195.773438 132.878906 195.875 133.183594 C 195.980469 133.488281 196.019531 133.800781 196 134.121094 C 195.707031 138.296875 192.980469 146.179688 184.640625 146.179688 Z M 184.640625 146.179688 " fill-opacity="1" fill-rule="nonzero"/><path fill="#54596e" d="M 201.347656 146.179688 C 200.027344 146.222656 198.753906 146 197.53125 145.507812 C 196.304688 145.015625 195.230469 144.296875 194.308594 143.355469 C 190.964844 139.820312 191.132812 134.433594 191.167969 133.832031 C 191.1875 133.511719 191.261719 133.207031 191.398438 132.914062 C 191.535156 132.625 191.722656 132.375 191.960938 132.160156 C 192.199219 131.941406 192.46875 131.78125 192.773438 131.675781 C 193.074219 131.566406 193.382812 131.519531 193.703125 131.535156 C 194.023438 131.550781 194.328125 131.628906 194.621094 131.765625 C 194.910156 131.902344 195.160156 132.089844 195.375 132.328125 C 195.589844 132.566406 195.753906 132.835938 195.859375 133.136719 C 195.96875 133.441406 196.015625 133.75 196 134.070312 C 196 135.160156 196.179688 138.320312 197.820312 140.035156 C 198.289062 140.496094 198.828125 140.839844 199.445312 141.070312 C 200.058594 141.296875 200.691406 141.390625 201.347656 141.351562 C 207.296875 141.351562 207.851562 134.109375 207.863281 133.792969 C 207.886719 133.472656 207.96875 133.171875 208.113281 132.882812 C 208.253906 132.597656 208.445312 132.347656 208.6875 132.136719 C 208.929688 131.925781 209.203125 131.769531 209.503906 131.667969 C 209.808594 131.566406 210.121094 131.523438 210.441406 131.546875 C 210.761719 131.566406 211.066406 131.648438 211.351562 131.792969 C 211.640625 131.933594 211.886719 132.125 212.097656 132.367188 C 212.308594 132.609375 212.46875 132.882812 212.570312 133.183594 C 212.671875 133.488281 212.714844 133.800781 212.691406 134.121094 C 212.402344 138.296875 209.675781 146.179688 201.347656 146.179688 Z M 201.347656 146.179688 " fill-opacity="1" fill-rule="nonzero"/><path fill="#d8d8d8" d="M 184.011719 104.527344 C 184.011719 105.078125 183.957031 105.625 183.851562 106.167969 C 183.742188 106.707031 183.582031 107.234375 183.371094 107.742188 C 183.160156 108.253906 182.902344 108.738281 182.59375 109.195312 C 182.289062 109.65625 181.941406 110.078125 181.550781 110.46875 C 181.160156 110.859375 180.734375 111.207031 180.277344 111.515625 C 179.820312 111.820312 179.335938 112.082031 178.824219 112.292969 C 178.316406 112.503906 177.789062 112.664062 177.25 112.769531 C 176.707031 112.878906 176.160156 112.929688 175.609375 112.929688 C 175.058594 112.929688 174.511719 112.878906 173.96875 112.769531 C 173.429688 112.664062 172.902344 112.503906 172.394531 112.292969 C 171.886719 112.082031 171.402344 111.820312 170.941406 111.515625 C 170.484375 111.207031 170.058594 110.859375 169.667969 110.46875 C 169.277344 110.078125 168.929688 109.65625 168.625 109.195312 C 168.316406 108.738281 168.058594 108.253906 167.847656 107.742188 C 167.636719 107.234375 167.476562 106.707031 167.371094 106.167969 C 167.261719 105.625 167.207031 105.078125 167.207031 104.527344 C 167.207031 103.976562 167.261719 103.429688 167.371094 102.890625 C 167.476562 102.347656 167.636719 101.820312 167.847656 101.3125 C 168.058594 100.800781 168.316406 100.320312 168.625 99.859375 C 168.929688 99.402344 169.277344 98.976562 169.667969 98.585938 C 170.058594 98.195312 170.484375 97.847656 170.941406 97.542969 C 171.402344 97.234375 171.886719 96.976562 172.394531 96.765625 C 172.902344 96.554688 173.429688 96.394531 173.96875 96.285156 C 174.511719 96.179688 175.058594 96.125 175.609375 96.125 C 176.160156 96.125 176.707031 96.179688 177.25 96.285156 C 177.789062 96.394531 178.316406 96.554688 178.824219 96.765625 C 179.335938 96.976562 179.820312 97.234375 180.277344 97.542969 C 180.734375 97.847656 181.160156 98.195312 181.550781 98.585938 C 181.941406 98.976562 182.289062 99.402344 182.59375 99.859375 C 182.902344 100.320312 183.160156 100.800781 183.371094 101.3125 C 183.582031 101.820312 183.742188 102.347656 183.851562 102.890625 C 183.957031 103.429688 184.011719 103.976562 184.011719 104.527344 Z M 184.011719 104.527344 " fill-opacity="1" fill-rule="nonzero"/><path fill="#54596e" d="M 179.109375 99.625 C 179.109375 100.089844 179.023438 100.539062 178.84375 100.964844 C 178.667969 101.394531 178.414062 101.773438 178.085938 102.101562 C 177.757812 102.429688 177.378906 102.683594 176.949219 102.859375 C 176.519531 103.039062 176.074219 103.128906 175.609375 103.128906 C 175.144531 103.128906 174.699219 103.039062 174.269531 102.859375 C 173.839844 102.683594 173.460938 102.429688 173.132812 102.101562 C 172.804688 101.773438 172.554688 101.394531 172.375 100.964844 C 172.199219 100.539062 172.109375 100.089844 172.109375 99.625 C 172.109375 99.160156 172.199219 98.714844 172.375 98.285156 C 172.554688 97.859375 172.804688 97.480469 173.132812 97.152344 C 173.460938 96.824219 173.839844 96.570312 174.269531 96.390625 C 174.699219 96.214844 175.144531 96.125 175.609375 96.125 C 176.074219 96.125 176.519531 96.214844 176.949219 96.390625 C 177.378906 96.570312 177.757812 96.824219 178.085938 97.152344 C 178.414062 97.480469 178.667969 97.859375 178.84375 98.285156 C 179.023438 98.714844 179.109375 99.160156 179.109375 99.625 Z M 179.109375 99.625 " fill-opacity="1" fill-rule="nonzero"/><path fill="#d8d8d8" d="M 220.164062 104.527344 C 220.164062 105.078125 220.109375 105.625 220.003906 106.167969 C 219.894531 106.707031 219.738281 107.234375 219.523438 107.742188 C 219.3125 108.253906 219.054688 108.738281 218.75 109.195312 C 218.441406 109.65625 218.09375 110.078125 217.703125 110.46875 C 217.3125 110.859375 216.890625 111.207031 216.429688 111.515625 C 215.972656 111.820312 215.488281 112.082031 214.976562 112.292969 C 214.46875 112.503906 213.945312 112.664062 213.402344 112.769531 C 212.859375 112.878906 212.316406 112.929688 211.761719 112.929688 C 211.210938 112.929688 210.664062 112.878906 210.125 112.769531 C 209.582031 112.664062 209.058594 112.503906 208.546875 112.292969 C 208.039062 112.082031 207.554688 111.820312 207.09375 111.515625 C 206.636719 111.207031 206.210938 110.859375 205.824219 110.46875 C 205.433594 110.078125 205.085938 109.65625 204.777344 109.195312 C 204.472656 108.738281 204.210938 108.253906 204 107.742188 C 203.789062 107.234375 203.628906 106.707031 203.523438 106.167969 C 203.414062 105.625 203.363281 105.078125 203.363281 104.527344 C 203.363281 103.976562 203.414062 103.429688 203.523438 102.890625 C 203.628906 102.347656 203.789062 101.820312 204 101.3125 C 204.210938 100.800781 204.472656 100.320312 204.777344 99.859375 C 205.085938 99.402344 205.433594 98.976562 205.824219 98.585938 C 206.210938 98.195312 206.636719 97.847656 207.09375 97.542969 C 207.554688 97.234375 208.039062 96.976562 208.546875 96.765625 C 209.058594 96.554688 209.582031 96.394531 210.125 96.285156 C 210.664062 96.179688 211.210938 96.125 211.761719 96.125 C 212.316406 96.125 212.859375 96.179688 213.402344 96.285156 C 213.945312 96.394531 214.46875 96.554688 214.976562 96.765625 C 215.488281 96.976562 215.972656 97.234375 216.429688 97.542969 C 216.890625 97.847656 217.3125 98.195312 217.703125 98.585938 C 218.09375 98.976562 218.441406 99.402344 218.75 99.859375 C 219.054688 100.320312 219.3125 100.800781 219.523438 101.3125 C 219.738281 101.820312 219.894531 102.347656 220.003906 102.890625 C 220.109375 103.429688 220.164062 103.976562 220.164062 104.527344 Z M 220.164062 104.527344 " fill-opacity="1" fill-rule="nonzero"/><path fill="#54596e" d="M 215.265625 99.625 C 215.265625 100.089844 215.175781 100.539062 214.996094 100.964844 C 214.820312 101.394531 214.566406 101.773438 214.238281 102.101562 C 213.910156 102.429688 213.53125 102.683594 213.101562 102.859375 C 212.675781 103.039062 212.226562 103.128906 211.761719 103.128906 C 211.300781 103.128906 210.851562 103.039062 210.421875 102.859375 C 209.996094 102.683594 209.617188 102.429688 209.289062 102.101562 C 208.960938 101.773438 208.707031 101.394531 208.527344 100.964844 C 208.351562 100.539062 208.261719 100.089844 208.261719 99.625 C 208.261719 99.160156 208.351562 98.714844 208.527344 98.285156 C 208.707031 97.859375 208.960938 97.480469 209.289062 97.152344 C 209.617188 96.824219 209.996094 96.570312 210.421875 96.390625 C 210.851562 96.214844 211.300781 96.125 211.761719 96.125 C 212.226562 96.125 212.675781 96.214844 213.101562 96.390625 C 213.53125 96.570312 213.910156 96.824219 214.238281 97.152344 C 214.566406 97.480469 214.820312 97.859375 214.996094 98.285156 C 215.175781 98.714844 215.265625 99.160156 215.265625 99.625 Z M 215.265625 99.625 " fill-opacity="1" fill-rule="nonzero"/><g fill="#4d4d4d" fill-opacity="1"><g transform="translate(49.066408, 304.301992)"><g><path d="M 62.03125 -44.921875 C 62.03125 -40.648438 60.925781 -36.726562 58.71875 -33.15625 C 56.507812 -29.59375 53.289062 -26.679688 49.0625 -24.421875 C 44.84375 -22.160156 39.820312 -20.828125 34 -20.421875 L 30.75 -2.265625 C 29.5 4.722656 26.082031 8.21875 20.5 8.21875 C 17.4375 8.21875 14.609375 7.3125 12.015625 5.5 C 9.429688 3.6875 7.359375 0.925781 5.796875 -2.78125 C 4.242188 -6.5 3.46875 -11.070312 3.46875 -16.5 C 3.46875 -26.707031 5.113281 -35.363281 8.40625 -42.46875 C 11.695312 -49.582031 16.117188 -54.910156 21.671875 -58.453125 C 27.222656 -61.992188 33.34375 -63.765625 40.03125 -63.765625 C 44.75 -63.765625 48.753906 -62.9375 52.046875 -61.28125 C 55.335938 -59.625 57.820312 -57.375 59.5 -54.53125 C 61.1875 -51.695312 62.03125 -48.492188 62.03125 -44.921875 Z M 35.34375 -28.1875 C 45.644531 -29.5 50.796875 -34.851562 50.796875 -44.25 C 50.796875 -47.5625 49.703125 -50.257812 47.515625 -52.34375 C 45.335938 -54.425781 41.960938 -55.46875 37.390625 -55.46875 C 32.210938 -55.46875 27.703125 -53.832031 23.859375 -50.5625 C 20.015625 -47.300781 17.046875 -42.769531 14.953125 -36.96875 C 12.867188 -31.164062 11.828125 -24.546875 11.828125 -17.109375 C 11.828125 -13.992188 12.140625 -11.226562 12.765625 -8.8125 C 13.398438 -6.40625 14.207031 -4.535156 15.1875 -3.203125 C 16.164062 -1.867188 17.109375 -1.203125 18.015625 -1.203125 C 19.273438 -1.203125 20.226562 -2.9375 20.875 -6.40625 L 23.359375 -20.65625 C 21.398438 -20.957031 20.546875 -21.082031 20.796875 -21.03125 C 19.296875 -21.28125 18.316406 -21.742188 17.859375 -22.421875 C 17.410156 -23.097656 17.1875 -23.96875 17.1875 -25.03125 C 17.1875 -26.132812 17.5 -27.007812 18.125 -27.65625 C 18.75 -28.3125 19.617188 -28.640625 20.734375 -28.640625 C 21.234375 -28.640625 21.609375 -28.613281 21.859375 -28.5625 C 23.066406 -28.363281 23.992188 -28.238281 24.640625 -28.1875 C 25.296875 -32.101562 26.226562 -37.351562 27.4375 -43.9375 C 27.738281 -45.644531 28.425781 -46.863281 29.5 -47.59375 C 30.582031 -48.320312 31.851562 -48.6875 33.3125 -48.6875 C 34.96875 -48.6875 36.160156 -48.375 36.890625 -47.75 C 37.617188 -47.125 37.984375 -46.128906 37.984375 -44.765625 C 37.984375 -43.960938 37.9375 -43.3125 37.84375 -42.8125 Z M 35.34375 -28.1875 "/></g></g></g><g fill="#4d4d4d" fill-opacity="1"><g transform="translate(109.743345, 304.301992)"><g><path d="M 37.234375 -16.8125 C 37.890625 -16.8125 38.40625 -16.507812 38.78125 -15.90625 C 39.15625 -15.300781 39.34375 -14.472656 39.34375 -13.421875 C 39.34375 -11.410156 38.863281 -9.851562 37.90625 -8.75 C 36.050781 -6.488281 33.425781 -4.398438 30.03125 -2.484375 C 26.644531 -0.578125 23.015625 0.375 19.140625 0.375 C 13.867188 0.375 9.773438 -1.054688 6.859375 -3.921875 C 3.941406 -6.785156 2.484375 -10.703125 2.484375 -15.671875 C 2.484375 -19.140625 3.210938 -22.367188 4.671875 -25.359375 C 6.128906 -28.347656 8.148438 -30.722656 10.734375 -32.484375 C 13.328125 -34.242188 16.253906 -35.125 19.515625 -35.125 C 22.429688 -35.125 24.769531 -34.253906 26.53125 -32.515625 C 28.289062 -30.785156 29.171875 -28.441406 29.171875 -25.484375 C 29.171875 -22.015625 27.925781 -19.035156 25.4375 -16.546875 C 22.945312 -14.054688 18.738281 -12.082031 12.8125 -10.625 C 14.070312 -8.3125 16.457031 -7.15625 19.96875 -7.15625 C 22.226562 -7.15625 24.800781 -7.945312 27.6875 -9.53125 C 30.582031 -11.113281 33.085938 -13.1875 35.203125 -15.75 C 35.804688 -16.457031 36.484375 -16.8125 37.234375 -16.8125 Z M 18.234375 -27.734375 C 16.378906 -27.734375 14.8125 -26.648438 13.53125 -24.484375 C 12.25 -22.328125 11.609375 -19.71875 11.609375 -16.65625 L 11.609375 -16.5 C 14.578125 -17.207031 16.914062 -18.265625 18.625 -19.671875 C 20.332031 -21.078125 21.1875 -22.710938 21.1875 -24.578125 C 21.1875 -25.523438 20.921875 -26.285156 20.390625 -26.859375 C 19.859375 -27.441406 19.140625 -27.734375 18.234375 -27.734375 Z M 18.234375 -27.734375 "/></g></g></g><g fill="#4d4d4d" fill-opacity="1"><g transform="translate(139.365745, 304.301992)"><g><path d="M 37.234375 -16.8125 C 37.890625 -16.8125 38.40625 -16.507812 38.78125 -15.90625 C 39.15625 -15.300781 39.34375 -14.472656 39.34375 -13.421875 C 39.34375 -11.410156 38.863281 -9.851562 37.90625 -8.75 C 35.75 -6.082031 33.390625 -3.894531 30.828125 -2.1875 C 28.265625 -0.476562 25.328125 0.375 22.015625 0.375 C 11.765625 0.375 6.640625 -6.832031 6.640625 -21.25 C 6.640625 -23.46875 6.710938 -25.707031 6.859375 -27.96875 L 3.921875 -27.96875 C 2.410156 -27.96875 1.390625 -28.242188 0.859375 -28.796875 C 0.335938 -29.347656 0.078125 -30.226562 0.078125 -31.4375 C 0.078125 -34.25 1.207031 -35.65625 3.46875 -35.65625 L 7.765625 -35.65625 C 8.617188 -41.175781 9.925781 -46.222656 11.6875 -50.796875 C 13.445312 -55.367188 15.566406 -59.007812 18.046875 -61.71875 C 20.535156 -64.4375 23.210938 -65.796875 26.078125 -65.796875 C 28.191406 -65.796875 29.847656 -64.863281 31.046875 -63 C 32.253906 -61.144531 32.859375 -58.8125 32.859375 -56 C 32.859375 -48.21875 29.59375 -41.4375 23.0625 -35.65625 L 31.5 -35.65625 C 32.3125 -35.65625 32.890625 -35.476562 33.234375 -35.125 C 33.585938 -34.769531 33.765625 -34.117188 33.765625 -33.171875 C 33.765625 -29.703125 30.925781 -27.96875 25.25 -27.96875 L 16.0625 -27.96875 C 15.957031 -25.457031 15.90625 -23.492188 15.90625 -22.078125 C 15.90625 -16.859375 16.519531 -13.191406 17.75 -11.078125 C 18.976562 -8.972656 20.925781 -7.921875 23.59375 -7.921875 C 25.75 -7.921875 27.65625 -8.570312 29.3125 -9.875 C 30.976562 -11.175781 32.941406 -13.132812 35.203125 -15.75 C 35.804688 -16.457031 36.484375 -16.8125 37.234375 -16.8125 Z M 24.046875 -58.5625 C 23.285156 -58.5625 22.441406 -57.617188 21.515625 -55.734375 C 20.585938 -53.847656 19.707031 -51.234375 18.875 -47.890625 C 18.050781 -44.554688 17.363281 -40.851562 16.8125 -36.78125 C 19.769531 -39.34375 21.988281 -42.21875 23.46875 -45.40625 C 24.957031 -48.601562 25.703125 -51.507812 25.703125 -54.125 C 25.703125 -57.082031 25.148438 -58.5625 24.046875 -58.5625 Z M 24.046875 -58.5625 "/></g></g></g><g fill="#4d4d4d" fill-opacity="1"><g transform="translate(168.988145, 304.301992)"><g><path d="M 24.640625 0.609375 C 17.960938 0.609375 12.613281 -0.660156 8.59375 -3.203125 C 4.570312 -5.742188 2.5625 -9.625 2.5625 -14.84375 C 2.5625 -17.613281 3.035156 -19.722656 3.984375 -21.171875 C 4.941406 -22.628906 6.351562 -23.359375 8.21875 -23.359375 C 9.570312 -23.359375 10.675781 -23.003906 11.53125 -22.296875 C 12.382812 -21.597656 12.8125 -20.695312 12.8125 -19.59375 C 12.8125 -18.59375 12.738281 -17.710938 12.59375 -16.953125 C 12.59375 -16.753906 12.550781 -16.40625 12.46875 -15.90625 C 12.394531 -15.40625 12.359375 -14.878906 12.359375 -14.328125 C 12.359375 -12.054688 13.5 -10.367188 15.78125 -9.265625 C 18.070312 -8.160156 21.28125 -7.609375 25.40625 -7.609375 C 29.675781 -7.609375 33.015625 -8.375 35.421875 -9.90625 C 37.835938 -11.4375 39.046875 -13.585938 39.046875 -16.359375 C 39.046875 -18.066406 38.492188 -19.535156 37.390625 -20.765625 C 36.285156 -21.992188 34.898438 -23.019531 33.234375 -23.84375 C 31.578125 -24.675781 29.242188 -25.695312 26.234375 -26.90625 C 22.359375 -28.414062 19.203125 -29.847656 16.765625 -31.203125 C 14.328125 -32.554688 12.242188 -34.398438 10.515625 -36.734375 C 8.785156 -39.078125 7.921875 -41.984375 7.921875 -45.453125 C 7.921875 -49.066406 8.882812 -52.28125 10.8125 -55.09375 C 12.75 -57.90625 15.535156 -60.09375 19.171875 -61.65625 C 22.816406 -63.21875 27.101562 -64 32.03125 -64 C 35.695312 -64 39.0625 -63.457031 42.125 -62.375 C 45.195312 -61.289062 47.648438 -59.644531 49.484375 -57.4375 C 51.316406 -55.226562 52.234375 -52.515625 52.234375 -49.296875 C 52.234375 -46.128906 51.753906 -43.738281 50.796875 -42.125 C 49.847656 -40.519531 48.441406 -39.71875 46.578125 -39.71875 C 45.273438 -39.71875 44.179688 -40.117188 43.296875 -40.921875 C 42.421875 -41.734375 41.984375 -42.691406 41.984375 -43.796875 C 41.984375 -44.742188 42.054688 -45.625 42.203125 -46.4375 C 42.359375 -47.9375 42.4375 -48.890625 42.4375 -49.296875 C 42.4375 -51.410156 41.40625 -53.019531 39.34375 -54.125 C 37.28125 -55.226562 34.71875 -55.78125 31.65625 -55.78125 C 27.332031 -55.78125 24.023438 -54.988281 21.734375 -53.40625 C 19.453125 -51.820312 18.3125 -49.597656 18.3125 -46.734375 C 18.3125 -44.828125 18.898438 -43.191406 20.078125 -41.828125 C 21.265625 -40.472656 22.738281 -39.34375 24.5 -38.4375 C 26.257812 -37.53125 28.722656 -36.453125 31.890625 -35.203125 C 35.703125 -33.640625 38.765625 -32.226562 41.078125 -30.96875 C 43.390625 -29.71875 45.363281 -28.007812 47 -25.84375 C 48.632812 -23.6875 49.453125 -21.023438 49.453125 -17.859375 C 49.453125 -11.929688 47.203125 -7.367188 42.703125 -4.171875 C 38.203125 -0.984375 32.179688 0.609375 24.640625 0.609375 Z M 24.640625 0.609375 "/></g></g></g><g fill="#4d4d4d" fill-opacity="1"><g transform="translate(221.223073, 304.301992)"><g><path d="M 45.453125 -16.8125 C 46.109375 -16.8125 46.625 -16.507812 47 -15.90625 C 47.375 -15.300781 47.5625 -14.472656 47.5625 -13.421875 C 47.5625 -11.410156 47.082031 -9.851562 46.125 -8.75 C 43.8125 -6.082031 41.4375 -3.894531 39 -2.1875 C 36.5625 -0.476562 33.785156 0.375 30.671875 0.375 C 28.109375 0.375 26.171875 -0.363281 24.859375 -1.84375 C 23.554688 -3.320312 22.90625 -5.472656 22.90625 -8.296875 C 22.90625 -9.703125 23.257812 -12.210938 23.96875 -15.828125 C 24.625 -18.992188 24.953125 -21.179688 24.953125 -22.390625 C 24.953125 -23.191406 24.675781 -23.59375 24.125 -23.59375 C 23.46875 -23.59375 22.535156 -22.75 21.328125 -21.0625 C 20.117188 -19.382812 18.910156 -17.160156 17.703125 -14.390625 C 16.503906 -11.628906 15.53125 -8.71875 14.78125 -5.65625 C 13.820312 -1.632812 11.457031 0.375 7.6875 0.375 C 6.175781 0.375 5.179688 -0.160156 4.703125 -1.234375 C 4.234375 -2.316406 4 -4.265625 4 -7.078125 C 4 -8.691406 4.019531 -9.972656 4.0625 -10.921875 L 4.140625 -16.953125 C 4.140625 -24.691406 4.929688 -32.757812 6.515625 -41.15625 C 8.097656 -49.550781 10.4375 -56.597656 13.53125 -62.296875 C 16.625 -68.003906 20.328125 -70.859375 24.640625 -70.859375 C 26.953125 -70.859375 28.820312 -69.863281 30.25 -67.875 C 31.6875 -65.882812 32.40625 -63.3125 32.40625 -60.15625 C 32.40625 -55.070312 30.921875 -49.804688 27.953125 -44.359375 C 24.992188 -38.910156 20.171875 -32.539062 13.484375 -25.25 C 13.335938 -22.632812 13.265625 -19.945312 13.265625 -17.1875 C 14.921875 -21.457031 16.765625 -24.9375 18.796875 -27.625 C 20.835938 -30.3125 22.847656 -32.234375 24.828125 -33.390625 C 26.816406 -34.546875 28.640625 -35.125 30.296875 -35.125 C 33.566406 -35.125 35.203125 -33.488281 35.203125 -30.21875 C 35.203125 -28.257812 34.648438 -24.71875 33.546875 -19.59375 C 32.585938 -15.226562 32.109375 -12.335938 32.109375 -10.921875 C 32.109375 -8.921875 32.835938 -7.921875 34.296875 -7.921875 C 35.296875 -7.921875 36.488281 -8.535156 37.875 -9.765625 C 39.257812 -10.992188 41.109375 -12.988281 43.421875 -15.75 C 44.023438 -16.457031 44.703125 -16.8125 45.453125 -16.8125 Z M 23.0625 -63.390625 C 22.15625 -63.390625 21.148438 -62.09375 20.046875 -59.5 C 18.941406 -56.914062 17.875 -53.425781 16.84375 -49.03125 C 15.8125 -44.632812 14.972656 -39.847656 14.328125 -34.671875 C 17.441406 -38.335938 20.015625 -42.332031 22.046875 -46.65625 C 24.078125 -50.976562 25.09375 -54.898438 25.09375 -58.421875 C 25.09375 -60.023438 24.914062 -61.253906 24.5625 -62.109375 C 24.21875 -62.960938 23.71875 -63.390625 23.0625 -63.390625 Z M 23.0625 -63.390625 "/></g></g></g><g fill="#4d4d4d" fill-opacity="1"><g transform="translate(259.061358, 304.301992)"><g><path d="M 42.0625 -23.140625 C 42.71875 -23.140625 43.21875 -22.8125 43.5625 -22.15625 C 43.914062 -21.507812 44.09375 -20.679688 44.09375 -19.671875 C 44.09375 -17.265625 43.363281 -15.832031 41.90625 -15.375 C 38.894531 -14.320312 35.578125 -13.71875 31.953125 -13.5625 C 31.003906 -9.34375 29.117188 -5.960938 26.296875 -3.421875 C 23.484375 -0.890625 20.296875 0.375 16.734375 0.375 C 13.710938 0.375 11.132812 -0.351562 9 -1.8125 C 6.863281 -3.269531 5.242188 -5.203125 4.140625 -7.609375 C 3.035156 -10.023438 2.484375 -12.640625 2.484375 -15.453125 C 2.484375 -19.273438 3.210938 -22.679688 4.671875 -25.671875 C 6.128906 -28.660156 8.140625 -30.992188 10.703125 -32.671875 C 13.265625 -34.359375 16.101562 -35.203125 19.21875 -35.203125 C 23.039062 -35.203125 26.117188 -33.878906 28.453125 -31.234375 C 30.785156 -28.597656 32.15625 -25.347656 32.5625 -21.484375 C 34.925781 -21.628906 37.738281 -22.128906 41 -22.984375 C 41.40625 -23.085938 41.757812 -23.140625 42.0625 -23.140625 Z M 17.34375 -7.609375 C 18.945312 -7.609375 20.335938 -8.257812 21.515625 -9.5625 C 22.703125 -10.875 23.492188 -12.757812 23.890625 -15.21875 C 22.335938 -16.28125 21.144531 -17.664062 20.3125 -19.375 C 19.476562 -21.082031 19.0625 -22.890625 19.0625 -24.796875 C 19.0625 -25.597656 19.140625 -26.398438 19.296875 -27.203125 L 18.921875 -27.203125 C 16.910156 -27.203125 15.238281 -26.234375 13.90625 -24.296875 C 12.570312 -22.367188 11.90625 -19.644531 11.90625 -16.125 C 11.90625 -13.363281 12.445312 -11.253906 13.53125 -9.796875 C 14.613281 -8.335938 15.882812 -7.609375 17.34375 -7.609375 Z M 17.34375 -7.609375 "/></g></g></g><g fill="#4d4d4d" fill-opacity="1"><g transform="translate(293.055528, 304.301992)"><g><path d="M 43.875 -16.8125 C 44.519531 -16.8125 45.03125 -16.507812 45.40625 -15.90625 C 45.789062 -15.300781 45.984375 -14.472656 45.984375 -13.421875 C 45.984375 -11.410156 45.503906 -9.851562 44.546875 -8.75 C 42.390625 -6.082031 40.066406 -3.894531 37.578125 -2.1875 C 35.085938 -0.476562 32.257812 0.375 29.09375 0.375 C 26.425781 0.375 24.265625 -0.578125 22.609375 -2.484375 C 19.742188 -0.628906 16.753906 0.320312 13.640625 0.375 C 12.984375 10.070312 11.5 18.175781 9.1875 24.6875 C 6.882812 31.195312 3.492188 34.453125 -0.984375 34.453125 C -3.691406 34.453125 -5.695312 33.46875 -7 31.5 C -8.3125 29.539062 -8.96875 26.828125 -8.96875 23.359375 C -8.96875 18.441406 -7.835938 12.703125 -5.578125 6.140625 C -3.316406 -0.410156 0.175781 -7.632812 4.90625 -15.53125 C 4.90625 -22.863281 4.851562 -27.960938 4.75 -30.828125 C 4.695312 -32.285156 5.273438 -33.441406 6.484375 -34.296875 C 7.691406 -35.148438 9.195312 -35.578125 11 -35.578125 C 12.0625 -35.578125 12.828125 -35.363281 13.296875 -34.9375 C 13.773438 -34.507812 14.039062 -33.664062 14.09375 -32.40625 C 14.09375 -31.15625 14.117188 -30.226562 14.171875 -29.625 C 15.773438 -31.632812 17.351562 -33.078125 18.90625 -33.953125 C 20.46875 -34.835938 22.128906 -35.28125 23.890625 -35.28125 C 26.703125 -35.28125 29 -34.144531 30.78125 -31.875 C 32.570312 -29.613281 33.46875 -26.648438 33.46875 -22.984375 C 33.46875 -20.328125 33.039062 -17.738281 32.1875 -15.21875 C 31.332031 -12.707031 30.148438 -10.421875 28.640625 -8.359375 C 29.691406 -8.066406 30.570312 -7.921875 31.28125 -7.921875 C 32.9375 -7.921875 34.519531 -8.519531 36.03125 -9.71875 C 37.539062 -10.925781 39.472656 -12.9375 41.828125 -15.75 C 42.429688 -16.457031 43.113281 -16.8125 43.875 -16.8125 Z M 14.015625 -6.859375 C 15.828125 -7.265625 17.5 -8.253906 19.03125 -9.828125 C 20.5625 -11.410156 21.78125 -13.367188 22.6875 -15.703125 C 23.59375 -18.046875 24.046875 -20.5 24.046875 -23.0625 C 24.046875 -24.570312 23.742188 -25.710938 23.140625 -26.484375 C 22.535156 -27.265625 21.734375 -27.65625 20.734375 -27.65625 C 18.921875 -27.65625 16.734375 -25.75 14.171875 -21.9375 C 14.117188 -19.726562 14.09375 -16.484375 14.09375 -12.203125 C 14.09375 -9.898438 14.066406 -8.117188 14.015625 -6.859375 Z M -0.375 27.0625 C 0.976562 27.0625 2.109375 24.109375 3.015625 18.203125 C 3.921875 12.296875 4.5 4.945312 4.75 -3.84375 C 2.582031 1.175781 0.875 5.972656 -0.375 10.546875 C -1.632812 15.117188 -2.265625 18.960938 -2.265625 22.078125 C -2.265625 23.691406 -2.070312 24.925781 -1.6875 25.78125 C -1.3125 26.632812 -0.875 27.0625 -0.375 27.0625 Z M -0.375 27.0625 "/></g></g></g></svg>